<?xml version="1.0" encoding="utf-8"?>
<!-- Generator: Adobe Illustrator 25.0.1, SVG Export Plug-In . SVG Version: 6.00 Build 0)  -->
<svg version="1.1" id="Layer_1" xmlns="http://www.w3.org/2000/svg" xmlns:xlink="http://www.w3.org/1999/xlink" x="0px" y="0px"
	 viewBox="0 0 40 40" style="enable-background:new 0 0 40 40;" xml:space="preserve">
<g>
	<path fill="#ffffff" d="M39.5,6.2c-0.4-0.4-1-0.7-1.6-0.7H9.2L8.8,3C8.6,2,7.7,1.3,6.7,1.3H2.1C0.9,1.3,0,2.2,0,3.3s0.9,2.1,2.1,2.1H5l3.9,23.2
		L9,28.8l0.1,0.3l0.2,0.4l0.2,0.2L9.9,30l0.2,0.1c0.2,0.1,0.5,0.2,0.7,0.2h22.9c1.1,0,2.1-0.9,2.1-2.1s-0.9-2.1-2.1-2.1H12.7
		l-0.4-2.1h23.5c1.1,0,1.9-0.7,2.1-1.8L40,7.8C40.1,7.3,39.9,6.6,39.5,6.2z M35.5,9.6l-0.6,4.2h-7.4V9.6H35.5z M25.5,9.6v4.2h-6.2
		V9.6H25.5z M25.5,15.9v4.2h-6.2v-4.2H25.5z M17.2,9.6v4.2h-6.2l-0.3,0.1L9.9,9.6L17.2,9.6L17.2,9.6z M10.9,15.9h6.2v4.2h-5.5
		L10.9,15.9z M27.5,20v-4.2h7.1L34,20H27.5z"/>
	<circle fill="#ffffff" cx="14" cy="35.6" r="3.1"/>
	<circle fill="#ffffff" cx="32.7" cy="35.6" r="3.1"/>
</g>
</svg>
