<?xml version="1.0" encoding="utf-8"?>
<!-- Generator: Adobe Illustrator 25.0.1, SVG Export Plug-In . SVG Version: 6.00 Build 0)  -->
<svg version="1.1" id="Layer_1" xmlns="http://www.w3.org/2000/svg" xmlns:xlink="http://www.w3.org/1999/xlink" x="0px" y="0px"
	 viewBox="0 0 236.3 121.1" style="enable-background:new 0 0 236.3 121.1;" xml:space="preserve">
<style type="text/css">
	.st0{fill:#182D17;}
	.st1{fill:#FFFFFF;}
</style>
<path class="st0" d="M235.4,80.6c0.2,0,0.5,0,0.7,0.1v-5c-0.2,0-0.4,0-0.6,0c-8.5,0-15.3-6.9-15.3-15.3c0-8.5,6.9-15.3,15.3-15.3
	c0.2,0,0.4,0,0.6,0v-4.6c-0.2,0.1-0.5,0.1-0.7,0.1c-1.7,0-3.1-1.4-3.1-3.1s1.4-3.1,3.1-3.1c0.2,0,0.5,0,0.7,0.1v-3.7
	c-0.2,0.1-0.5,0.1-0.7,0.1c-1.7,0-3.1-1.4-3.1-3.1s1.4-3.1,3.1-3.1c0.2,0,0.5,0,0.7,0.1v-3.7c-0.2,0.1-0.5,0.1-0.7,0.1
	c-1.7,0-3.1-1.4-3.1-3.1s1.4-3.1,3.1-3.1c0.2,0,0.5,0,0.7,0.1v-3.7c-0.2,0.1-0.5,0.1-0.7,0.1c-1.7,0-3.1-1.4-3.1-3.1
	s1.4-3.1,3.1-3.1c0.2,0,0.5,0,0.7,0.1V0H0v5.2c1.7,0,3.1,1.4,3.1,3.1S1.7,11.4,0,11.4v3.5c1.7,0,3.1,1.4,3.1,3.1S1.7,21.1,0,21.1
	v3.5c1.7,0,3.1,1.4,3.1,3.1S1.7,30.9,0,30.9v3.5c1.7,0,3.1,1.4,3.1,3.1S1.7,40.6,0,40.6V45c8.3,0.1,15,6.9,15,15.3
	c0,8.4-6.7,15.1-15,15.3v4.9c1.7,0,3.1,1.4,3.1,3.1S1.7,86.8,0,86.8v3.5c1.7,0,3.1,1.4,3.1,3.1S1.7,96.5,0,96.5v3.5
	c1.7,0,3.1,1.4,3.1,3.1s-1.4,3.1-3.1,3.1v3.5c1.7,0,3.1,1.4,3.1,3.1s-1.4,3.1-3.1,3.1v5.2h236.1v-5.3c-0.2,0.1-0.5,0.1-0.7,0.1
	c-1.7,0-3.1-1.4-3.1-3.1s1.4-3.1,3.1-3.1c0.2,0,0.5,0,0.7,0.1v-3.7c-0.2,0.1-0.5,0.1-0.7,0.1c-1.7,0-3.1-1.4-3.1-3.1
	s1.4-3.1,3.1-3.1c0.2,0,0.5,0,0.7,0.1v-3.7c-0.2,0.1-0.5,0.1-0.7,0.1c-1.7,0-3.1-1.4-3.1-3.1s1.4-3.1,3.1-3.1c0.2,0,0.5,0,0.7,0.1
	v-3.7c-0.2,0.1-0.5,0.1-0.7,0.1c-1.7,0-3.1-1.4-3.1-3.1S233.7,80.6,235.4,80.6z"/>
<g>
	<path class="st1" d="M55.8,24v9.2h-5.2v-4.5h-3v15.4h2.9v4.7H37.3v-4.7h2.9V28.7h-3.1v4.5H32V24H55.8z"/>
	<path class="st1" d="M57.2,24H69v4.7h-2.2v15.4H69v4.7H57.2v-4.7h2.2V28.7h-2.2V24z"/>
	<path class="st1" d="M93.7,44.4c-2.4,2.7-6.1,5-10.8,5c-7.5,0-12.5-4.8-12.5-12.7c0-8.2,6.1-13.1,10.8-13.1c3.5,0,5.1,2,5.5,2.4
		l0.8-2h5.6v10.1h-6.4c-0.1-2.3-1.2-4.5-3.8-4.5c-2.6,0-4.2,3.2-4.2,7c0,3.5,1.8,6.7,5.2,6.7c3,0,5.3-3.1,5.6-3.5L93.7,44.4z"/>
	<path class="st1" d="M106.3,28.6h-1.9v5.8l6.6-5.8h-2.6V24h11.8v4.6h-2.1L113,33l7.2,11.2h2.1v4.6h-13.8v-4.6h2.4l-3.8-6l-2.6,2.2
		v3.8h1.9v4.6H95.1v-4.6H97V28.6h-1.9V24h11.2V28.6z"/>
	<path class="st1" d="M124,24h21.4v7.8h-6.1v-3.2h-5.7v4.9h6.7v4.7h-6.7v5.8h5.7v-3.3h6.1v8H124v-4.7h2.2V28.7H124V24z"/>
	<path class="st1" d="M170.7,24v9.2h-5.2v-4.5h-3v15.4h2.9v4.7h-13.2v-4.7h2.9V28.7h-3.1v4.5h-5.2V24H170.7z"/>
	<path class="st1" d="M172.1,48.8v-8.9h6.6c0,3,3,3.5,4.5,3.5c1.2,0,3-0.3,3-1.8c0-2.8-13.6-1.6-13.6-10.6c0-5.3,5-7.6,8.4-7.6
		c3,0,6,1,7.4,3.6l0.4-3h6.1v8.9h-6.4c0-2.6-2.1-4.1-4.5-4.1c-1,0-2.4,0.6-2.4,1.9c0,3.7,14.1,2.8,14.1,11.1c0,5.5-5.2,7.5-9.4,7.5
		c-3.6,0-6.1-1.7-7.4-3.3l-0.4,2.7H172.1z"/>
</g>
<g>
	<path class="st1" d="M51.3,69.6c-2,2.2-5.1,4.2-9,4.2c-6.3,0-10.5-4-10.5-10.7c0-6.8,5.1-10.9,9-10.9c3,0,4.3,1.7,4.6,2l0.7-1.7
		h4.7V61h-5.3c-0.1-1.9-1-3.7-3.2-3.7c-2.1,0-3.5,2.6-3.5,5.9c0,2.9,1.5,5.6,4.3,5.6c2.5,0,4.5-2.6,4.7-2.9L51.3,69.6z"/>
	<path class="st1" d="M52.5,52.5h17.9v6.6h-5.1v-2.6h-4.8v4.1h5.7v4h-5.7v4.8h4.8v-2.8h5.1v6.7H52.5v-4h1.9V56.4h-1.9V52.5z"/>
	<path class="st1" d="M71.9,52.5h9.7c6.9,0,8.2,2.7,8.2,6.1c0,2.3-1.8,4-4.3,4.3c2.1,0.3,3.9,2.1,3.9,4.2c0,1.3,0.2,2,0.7,2
		c0.4,0,0.7-0.4,0.7-1v-1h2v1.6c0,2.5-1,4.8-4.3,4.8c-3.9,0-5.8-2.1-5.8-5.5c0-2.7-0.3-3.4-3-3.4v4.6h1.8v3.9h-9.6v-3.9h1.7v-13
		h-1.7V52.5z M79.7,56.4v5.1h1.3c1.7,0,2.9-0.8,2.9-2.4c0-1.8-1-2.6-2.7-2.6H79.7z"/>
	<path class="st1" d="M113.5,52.5v7.7h-4.4v-3.8h-2.5v12.9h2.5v4H98.1v-4h2.4V56.4h-2.6v3.8h-4.4v-7.7H113.5z"/>
	<path class="st1" d="M114.7,52.5h9.9v3.9h-1.8v12.9h1.8v4h-9.9v-4h1.9V56.4h-1.9V52.5z"/>
	<path class="st1" d="M126.1,52.5h17.8v6.6h-5.3v-2.6h-4.5v5.2h5.7v4h-5.7v3.8h3v4h-11.1v-4h1.8V56.4h-1.8V52.5z"/>
	<path class="st1" d="M145,52.5h9.9v3.9h-1.8v12.9h1.8v4H145v-4h1.9V56.4H145V52.5z"/>
	<path class="st1" d="M156.4,52.5h17.9v6.6h-5.1v-2.6h-4.8v4.1h5.7v4h-5.7v4.8h4.8v-2.8h5.1v6.7h-17.9v-4h1.9V56.4h-1.9V52.5z"/>
	<path class="st1" d="M175.8,73.3v-4h1.8V56.4h-1.8v-3.9h9.1c7.2,0,11.3,4.4,11.3,10.1c0,6.8-4.1,10.7-11.4,10.7H175.8z M184.9,56.4
		h-1.1v12.9h1.1c3.2-0.1,4.5-3,4.5-6.7C189.3,59.4,188,56.4,184.9,56.4z"/>
</g>
<path class="st1" d="M163.3,77.7c2.6-0.2,4.7,1.2,6.6,2.8c4.1,3.6,7.2,8,9.3,13c0.2,0.5,0.3,1.2,0.9,1.2c0.7,0.1,0.9-0.6,1.2-1.1
	c1.3-2.2,2.4-4.5,3.5-6.8c6.4-12.2,15-22.6,25.4-31.6c3.1-2.7,6.2-5.2,9.8-7.2c1.6-0.9,3.2-1.7,5.1-2.1c0.4-0.1,0.8-0.1,1.2,0
	c0.5,0.1,0.7,0.4,0.5,0.9c-0.2,0.6-0.7,1.1-1.1,1.6c-2,2.3-4.3,4.5-6.4,6.7c-4.2,4.6-8.1,9.5-11.6,14.7c-5.4,8-10.1,16.4-14,25.2
	c-2,4.6-3.9,9.4-5.1,14.3c-0.3,1.1-0.3,2.4-0.8,3.4c-0.8,1.6-2,2.8-3.4,3.9c-1.8,1.4-3.8,2.5-6.1,3c-0.6,0.1-1.2,0.1-1.7,0
	c-1-0.2-1.7-0.7-2-1.7c-2.6-7.3-6.1-14.2-10.9-20.3c-3-3.8-6.3-7.1-10.6-9.5c-1.3-0.7-2.6-1.3-4.1-1.6c-1.1-0.3-1.3-0.8-0.7-1.8
	c0.7-1.1,1.8-1.9,2.8-2.6c3.3-2.2,6.8-3.8,10.7-4.3c0.1,0,0.2,0,0.4,0C162.6,77.7,163,77.7,163.3,77.7z"/>
<g>
	<path class="st1" d="M166.6,106.4H27.7v-92h181.9v38.1c1.3-1.1,2.6-2.2,4-3.2V10.4H23.7v100h145.1
		C168.1,109,167.3,107.7,166.6,106.4z"/>
	<path class="st1" d="M209.8,71.1c-0.1,0.1-0.2,0.3-0.3,0.4v34.9H192c-0.4,1.2-0.7,2.3-1,3.4c0,0.2-0.1,0.4-0.1,0.6h22.6V65.9
		C212.3,67.6,211.1,69.3,209.8,71.1z"/>
</g>
</svg>
