<?xml version="1.0" encoding="utf-8"?>
<!-- Generator: Adobe Illustrator 25.0.1, SVG Export Plug-In . SVG Version: 6.00 Build 0)  -->
<svg version="1.1" id="Layer_1" xmlns="http://www.w3.org/2000/svg" xmlns:xlink="http://www.w3.org/1999/xlink" x="0px" y="0px"
	 viewBox="0 0 40 40" style="enable-background:new 0 0 40 40;" xml:space="preserve">
<path fill="#0F1775" d="M24.8,4.6c-5.7-5.7-14.9-5.7-20.6,0s-5.7,14.9,0,20.6c5.3,5.3,13.8,5.7,19.5,0.9l1.9,1.9c-0.3,1.3,0,2.7,1,3.8l6.7,6.7
	c1.5,1.5,4,1.5,5.5,0c1.5-1.5,1.5-4,0-5.5l-6.7-6.7c-1-1-2.4-1.3-3.8-1l-2.1-2.1C30.4,17.6,29.9,9.7,24.8,4.6z M7.4,22.1
	c-3.9-3.9-3.9-10.4,0-14.3s10.4-3.9,14.3,0s3.9,10.4,0,14.3S11.3,26,7.4,22.1z"/>
</svg>
